<svg width="261" height="214" viewBox="0 0 261 214" fill="none" xmlns="http://www.w3.org/2000/svg">
<ellipse cx="140" cy="37.5" rx="52" ry="37.5" fill="#858484"/>
<ellipse cx="207" cy="75" rx="54" ry="42" fill="#858484"/>
<ellipse cx="50.5" cy="103.5" rx="50.5" ry="28.5" fill="#858484"/>
<ellipse cx="168.5" cy="107.5" rx="50.5" ry="28.5" fill="#858484"/>
<ellipse cx="99" cy="79" rx="54" ry="42" fill="#858484"/>
<ellipse cx="177" cy="85" rx="48" ry="47" fill="#858484"/>
<line x1="84.4503" y1="145.217" x2="70.4503" y2="174.217" stroke="black"/>
<line x1="102.45" y1="145.217" x2="88.4503" y2="174.217" stroke="black"/>
<line x1="84.4503" y1="145.217" x2="70.4503" y2="174.217" stroke="black"/>
<line x1="174.45" y1="145.217" x2="160.45" y2="174.217" stroke="black"/>
<line x1="156.45" y1="145.217" x2="142.45" y2="174.217" stroke="black"/>
<line x1="138.45" y1="145.217" x2="124.45" y2="174.217" stroke="black"/>
<line x1="120.45" y1="145.217" x2="106.45" y2="174.217" stroke="black"/>
<line x1="82.4503" y1="184.217" x2="68.4503" y2="213.217" stroke="black"/>
<line x1="64.4503" y1="184.217" x2="50.4503" y2="213.217" stroke="black"/>
<line x1="154.45" y1="184.217" x2="140.45" y2="213.217" stroke="black"/>
<line x1="136.45" y1="184.217" x2="122.45" y2="213.217" stroke="black"/>
<line x1="118.45" y1="184.217" x2="104.45" y2="213.217" stroke="black"/>
<line x1="100.45" y1="184.217" x2="86.4503" y2="213.217" stroke="black"/>
</svg>
