<svg width="261" height="136" viewBox="0 0 261 136" fill="none" xmlns="http://www.w3.org/2000/svg">
<path d="M191 37.5C191 47.4528 185.408 56.5541 176.185 63.2054C166.963 69.8557 154.173 74 140 74C125.827 74 113.037 69.8557 103.815 63.2054C94.5922 56.5541 89 47.4528 89 37.5C89 27.5472 94.5922 18.4459 103.815 11.7946C113.037 5.14428 125.827 1 140 1C154.173 1 166.963 5.14428 176.185 11.7946C185.408 18.4459 191 27.5472 191 37.5Z" fill="#C4C4C4" stroke="white" stroke-width="2"/>
<path d="M260 75C260 97.4244 236.52 116 207 116C177.48 116 154 97.4244 154 75C154 52.5756 177.48 34 207 34C236.52 34 260 52.5756 260 75Z" fill="#C4C4C4" stroke="white" stroke-width="2"/>
<path d="M101 103.5C101 119.24 78.3904 132 50.5 132C22.6096 132 0 119.24 0 103.5C0 87.7599 22.6096 75 50.5 75C78.3904 75 101 87.7599 101 103.5Z" fill="#C4C4C4"/>
<path d="M101 103.5C101 119.24 78.3904 132 50.5 132C22.6096 132 0 119.24 0 103.5C0 87.7599 22.6096 75 50.5 75C78.3904 75 101 87.7599 101 103.5Z" stroke="white"/>
<path d="M219 107.5C219 123.24 196.39 136 168.5 136C140.61 136 118 123.24 118 107.5C118 91.7599 140.61 79 168.5 79C196.39 79 219 91.7599 219 107.5Z" fill="#C4C4C4"/>
<path d="M219 107.5C219 123.24 196.39 136 168.5 136C140.61 136 118 123.24 118 107.5C118 91.7599 140.61 79 168.5 79C196.39 79 219 91.7599 219 107.5Z" stroke="white"/>
<ellipse cx="99" cy="79" rx="54" ry="42" fill="#C4C4C4"/>
<ellipse cx="177" cy="85" rx="48" ry="47" fill="#C4C4C4"/>
</svg>
