<svg width="261" height="254" viewBox="0 0 261 254" fill="none" xmlns="http://www.w3.org/2000/svg">
<ellipse cx="140" cy="37.5" rx="52" ry="37.5" fill="#858484"/>
<ellipse cx="207" cy="75" rx="54" ry="42" fill="#858484"/>
<ellipse cx="50.5" cy="103.5" rx="50.5" ry="28.5" fill="#858484"/>
<ellipse cx="168.5" cy="107.5" rx="50.5" ry="28.5" fill="#858484"/>
<ellipse cx="99" cy="79" rx="54" ry="42" fill="#858484"/>
<ellipse cx="177" cy="85" rx="48" ry="47" fill="#858484"/>
<path d="M151.582 151.904L168.269 177.26L177.96 149.727L169.789 177.853L197.228 169.704L170.352 179.42L194.877 196.792L169.535 180.781L172.678 210.593L167.952 180.912L147.346 200.714L166.796 179.713L137.958 174.595L166.937 178.088L151.582 151.904Z" fill="#46F9E3"/>
<path d="M70.5821 147.904L87.2688 173.26L96.9596 145.727L88.7887 173.853L116.228 165.704L89.352 175.42L113.877 192.792L88.5346 176.781L91.6779 206.593L86.9519 176.912L66.3464 196.714L85.7959 175.713L56.9579 170.595L85.9369 174.088L70.5821 147.904Z" fill="#46F9E3"/>
<path d="M111.301 197.62L124.543 217.742L132.233 195.893L125.749 218.213L147.523 211.746L126.196 219.456L145.658 233.242L125.547 220.537L128.042 244.194L124.291 220.64L107.94 236.354L123.374 219.689L100.489 215.627L123.486 218.399L111.301 197.62Z" fill="#46F9E3"/>
</svg>
