<svg width="261" height="244" viewBox="0 0 261 244" fill="none" xmlns="http://www.w3.org/2000/svg">
<ellipse cx="140" cy="37.5" rx="52" ry="37.5" fill="#858484"/>
<ellipse cx="207" cy="75" rx="54" ry="42" fill="#858484"/>
<ellipse cx="50.5" cy="103.5" rx="50.5" ry="28.5" fill="#858484"/>
<ellipse cx="168.5" cy="107.5" rx="50.5" ry="28.5" fill="#858484"/>
<ellipse cx="99" cy="79" rx="54" ry="42" fill="#858484"/>
<ellipse cx="177" cy="85" rx="48" ry="47" fill="#858484"/>
<line x1="100.064" y1="142.709" x2="63.3216" y2="211.15" stroke="#19526A" stroke-width="3"/>
<line x1="130.322" y1="142.709" x2="93.5797" y2="211.15" stroke="#19526A" stroke-width="3"/>
<path d="M133.02 147.904L149.706 173.26L159.397 145.727L151.226 173.853L178.665 165.704L151.79 175.42L176.315 192.792L150.972 176.781L154.116 206.593L149.39 176.912L128.784 196.714L148.233 175.713L119.396 170.595L148.374 174.088L133.02 147.904Z" fill="#46F9E3"/>
<path d="M161.301 187.62L174.543 207.742L182.233 185.893L175.749 208.213L197.523 201.746L176.196 209.456L195.658 223.242L175.547 210.537L178.042 234.194L174.291 210.64L157.94 226.354L173.374 209.689L150.489 205.627L173.486 208.399L161.301 187.62Z" fill="#46F9E3"/>
</svg>
