<svg width="192" height="194" viewBox="0 0 192 194" fill="none" xmlns="http://www.w3.org/2000/svg">
<circle cx="95" cy="95" r="50" fill="#FF9706"/>
<path d="M95.5 0L109.789 33.75H81.2106L95.5 0Z" fill="#FF9706"/>
<path d="M27.9238 163.158L43.7578 130.105L62.6784 151.523L27.9238 163.158Z" fill="#FF9706"/>
<path d="M95.4976 193.276L81.7873 159.286L110.362 159.775L95.4976 193.276Z" fill="#FF9706"/>
<path d="M162.924 164.028L128.658 151.026L148.412 130.374L162.924 164.028Z" fill="#FF9706"/>
<path d="M0.121548 100.831L33.7654 86.2934L33.9759 114.871L0.121548 100.831Z" fill="#FF9706"/>
<path d="M190.144 103.227L155.29 114.56L157.748 86.0875L190.144 103.227Z" fill="#FF9706"/>
<path d="M22.008 32.2912L56.6823 44.1631L37.6159 65.4521L22.008 32.2912Z" fill="#FF9706"/>
<path d="M167.12 30.6353L154.669 65.106L133.702 45.6857L167.12 30.6353Z" fill="#FF9706"/>
</svg>
