<svg width="192" height="194" viewBox="0 0 192 194" fill="none" xmlns="http://www.w3.org/2000/svg">
<circle cx="95" cy="95" r="48.5" fill="#FFE606" stroke="black" stroke-width="3"/>
<path d="M83.4746 32.25L95.5 3.84729L107.525 32.25H83.4746Z" fill="#FFE606" stroke="black" stroke-width="3"/>
<path d="M60.0553 150.82L30.8072 160.611L44.1325 132.795L60.0553 150.82Z" fill="#FFE606" stroke="black" stroke-width="3"/>
<path d="M108.073 161.236L95.5634 189.429L84.0253 160.825L108.073 161.236Z" fill="#FFE606" stroke="black" stroke-width="3"/>
<path d="M147.931 133.047L160.144 161.369L131.307 150.427L147.931 133.047Z" fill="#FFE606" stroke="black" stroke-width="3"/>
<path d="M32.4593 112.619L3.96874 100.803L32.2821 88.5684L32.4593 112.619Z" fill="#FFE606" stroke="black" stroke-width="3"/>
<path d="M159.048 88.4721L186.311 102.896L156.979 112.434L159.048 88.4721Z" fill="#FFE606" stroke="black" stroke-width="3"/>
<path d="M38.0089 62.7649L24.8739 34.8579L54.0545 44.8489L38.0089 62.7649Z" fill="#FFE606" stroke="black" stroke-width="3"/>
<path d="M136.383 46.1237L164.505 33.4579L154.027 62.4671L136.383 46.1237Z" fill="#FFE606" stroke="black" stroke-width="3"/>
</svg>
