<svg width="334" height="194" viewBox="0 0 334 194" fill="none" xmlns="http://www.w3.org/2000/svg">
<circle cx="237" cy="95" r="50" fill="#FF9706"/>
<path d="M237.5 0L251.789 33.75H223.211L237.5 0Z" fill="#FF9706"/>
<path d="M169.924 163.158L185.758 130.105L204.678 151.523L169.924 163.158Z" fill="#FF9706"/>
<path d="M237.498 193.276L223.787 159.286L252.362 159.775L237.498 193.276Z" fill="#FF9706"/>
<path d="M304.924 164.028L270.658 151.026L290.412 130.374L304.924 164.028Z" fill="#FF9706"/>
<path d="M142.122 100.831L175.765 86.2934L175.976 114.871L142.122 100.831Z" fill="#FF9706"/>
<path d="M332.144 103.227L297.29 114.56L299.748 86.0875L332.144 103.227Z" fill="#FF9706"/>
<path d="M164.008 32.2912L198.682 44.1631L179.616 65.4521L164.008 32.2912Z" fill="#FF9706"/>
<path d="M309.12 30.6353L296.669 65.106L275.702 45.6857L309.12 30.6353Z" fill="#FF9706"/>
<path d="M191 95.5C191 105.453 185.408 114.554 176.185 121.205C166.963 127.856 154.173 132 140 132C125.827 132 113.037 127.856 103.815 121.205C94.5922 114.554 89 105.453 89 95.5C89 85.5472 94.5922 76.4459 103.815 69.7946C113.037 63.1443 125.827 59 140 59C154.173 59 166.963 63.1443 176.185 69.7946C185.408 76.4459 191 85.5472 191 95.5Z" fill="#C4C4C4" stroke="white" stroke-width="2"/>
<path d="M260 133C260 155.424 236.52 174 207 174C177.48 174 154 155.424 154 133C154 110.576 177.48 92 207 92C236.52 92 260 110.576 260 133Z" fill="#C4C4C4" stroke="white" stroke-width="2"/>
<path d="M101 161.5C101 177.24 78.3904 190 50.5 190C22.6096 190 0 177.24 0 161.5C0 145.76 22.6096 133 50.5 133C78.3904 133 101 145.76 101 161.5Z" fill="#C4C4C4"/>
<path d="M101 161.5C101 177.24 78.3904 190 50.5 190C22.6096 190 0 177.24 0 161.5C0 145.76 22.6096 133 50.5 133C78.3904 133 101 145.76 101 161.5Z" stroke="white"/>
<path d="M219 165.5C219 181.24 196.39 194 168.5 194C140.61 194 118 181.24 118 165.5C118 149.76 140.61 137 168.5 137C196.39 137 219 149.76 219 165.5Z" fill="#C4C4C4"/>
<path d="M219 165.5C219 181.24 196.39 194 168.5 194C140.61 194 118 181.24 118 165.5C118 149.76 140.61 137 168.5 137C196.39 137 219 149.76 219 165.5Z" stroke="white"/>
<ellipse cx="99" cy="137" rx="54" ry="42" fill="#C4C4C4"/>
<ellipse cx="177" cy="143" rx="48" ry="47" fill="#C4C4C4"/>
</svg>
